<svg id="visual" viewBox="0 0 900 600" width="900" height="600" xmlns="http://www.w3.org/2000/svg" xmlns:xlink="http://www.w3.org/1999/xlink" version="1.1"><rect width="900" height="600" fill="#FFFFFF"></rect><g><g transform="translate(871 313)"><path d="M63.7 -19.2C72.7 6.9 63.2 40.4 41.2 56.4C19.1 72.3 -15.5 70.7 -37.8 54C-60 37.4 -69.8 5.7 -61.5 -19.5C-53.1 -44.8 -26.6 -63.6 0.4 -63.8C27.4 -63.9 54.8 -45.3 63.7 -19.2Z" stroke="#359353" fill="none" stroke-width="15"></path></g><g transform="translate(26 210)"><path d="M70.7 -20.5C80.1 5.9 68.2 41.7 44.6 58.2C21 74.6 -14.4 71.6 -36.6 54.5C-58.7 37.4 -67.6 6.3 -59.3 -18.7C-51 -43.6 -25.5 -62.3 2.6 -63.2C30.6 -64 61.3 -46.9 70.7 -20.5Z" stroke="#359353" fill="none" stroke-width="15"></path></g></g></svg>