<svg id="visual" viewBox="0 0 560 200" width="560" height="200" xmlns="http://www.w3.org/2000/svg" xmlns:xlink="http://www.w3.org/1999/xlink" version="1.1"><rect x="0" y="0" width="560" height="200" fill="#7BE5EC"></rect><g transform="translate(260.3252299083856 115.55199151183493)"><path d="M167.9 -285.4C201.7 -239.5 202.3 -166.1 218.2 -106.8C234.2 -47.5 265.6 -2.4 255.4 33.5C245.2 69.4 193.5 96.1 161.6 148.9C129.7 201.8 117.7 280.8 82.3 300.5C46.9 320.2 -11.9 280.5 -65.6 251.7C-119.2 223 -167.7 205.1 -192.7 170.3C-217.7 135.4 -219.2 83.6 -217.6 36.7C-216 -10.3 -211.2 -52.3 -193.8 -87.7C-176.4 -123.2 -146.3 -152 -111.9 -197.6C-77.5 -243.2 -38.7 -305.6 14.1 -327.6C67 -349.6 134.1 -331.3 167.9 -285.4" fill="none" stroke="#1C68CE" stroke-width="6"></path></g></svg>