<svg id="visual" viewBox="0 0 900 600" width="900" height="600" xmlns="http://www.w3.org/2000/svg" xmlns:xlink="http://www.w3.org/1999/xlink" version="1.1"><rect width="900" height="600" fill="#FFFFFF"></rect><g><g transform="translate(692 55)"><path d="M64.2 -21.9C72.1 3.2 59.5 34 35.7 52C11.8 70 -23.4 75.3 -46.1 59.7C-68.8 44.1 -79.1 7.5 -69.3 -20.3C-59.6 -48.1 -29.8 -67.1 -0.8 -66.8C28.2 -66.6 56.4 -47 64.2 -21.9Z" stroke="#359353" fill="none" stroke-width="20"></path></g><g transform="translate(400 512)"><path d="M32.5 -9.9C37.2 3.7 32.5 21 20.7 29.9C9 38.8 -9.9 39.3 -21.7 30.6C-33.4 21.9 -37.9 4 -33.1 -9.8C-28.3 -23.7 -14.1 -33.7 -0.1 -33.7C13.9 -33.6 27.9 -23.6 32.5 -9.9Z" stroke="#359353" fill="none" stroke-width="20"></path></g><g transform="translate(871 313)"><path d="M63.7 -19.2C72.7 6.9 63.2 40.4 41.2 56.4C19.1 72.3 -15.5 70.7 -37.8 54C-60 37.4 -69.8 5.7 -61.5 -19.5C-53.1 -44.8 -26.6 -63.6 0.4 -63.8C27.4 -63.9 54.8 -45.3 63.7 -19.2Z" stroke="#359353" fill="none" stroke-width="20"></path></g><g transform="translate(26 210)"><path d="M70.7 -20.5C80.1 5.9 68.2 41.7 44.6 58.2C21 74.6 -14.4 71.6 -36.6 54.5C-58.7 37.4 -67.6 6.3 -59.3 -18.7C-51 -43.6 -25.5 -62.3 2.6 -63.2C30.6 -64 61.3 -46.9 70.7 -20.5Z" stroke="#359353" fill="none" stroke-width="20"></path></g></g></svg>