<svg id="visual" viewBox="0 0 900 600" width="900" height="600" xmlns="http://www.w3.org/2000/svg" xmlns:xlink="http://www.w3.org/1999/xlink" version="1.1"><rect x="0" y="0" width="900" height="600" fill="#FFFFFF"></rect><g transform="translate(452.2380077413693 275.35255725164586)"><path d="M115.5 -152.1C145.9 -136.8 164.3 -98.1 189.9 -53.6C215.6 -9.1 248.5 41.2 232.8 71.3C217.1 101.4 152.6 111.4 105.7 134.5C58.8 157.6 29.4 193.8 -14.7 214C-58.8 234.2 -117.6 238.5 -145.5 209.2C-173.4 179.9 -170.4 117.2 -188.1 61.4C-205.7 5.7 -244.1 -43.1 -241.2 -86.5C-238.3 -130 -194.1 -168.1 -147 -178C-99.9 -187.9 -50 -169.4 -3.7 -164.3C42.5 -159.2 85 -167.4 115.5 -152.1" fill="none" stroke="#359353" stroke-width="8"></path></g></svg>
