<svg id="visual" viewBox="0 0 560 300" width="560" height="300" xmlns="http://www.w3.org/2000/svg" xmlns:xlink="http://www.w3.org/1999/xlink" version="1.1"><rect x="0" y="0" width="560" height="300" fill="#7BE5EC"></rect><g transform="translate(295.5026149092728 166.72963439878077)"><path d="M139.1 -201.4C190.3 -183.6 248.6 -161.9 258.5 -123.1C268.3 -84.3 229.7 -28.4 211.8 23.8C193.9 75.9 196.7 124.4 175.2 155C153.7 185.6 107.8 198.4 66.6 196.5C25.5 194.7 -11 178.3 -60.3 176.9C-109.5 175.4 -171.5 188.9 -215.7 169.4C-259.9 149.9 -286.4 97.4 -290.5 44C-294.6 -9.3 -276.5 -63.7 -244.1 -101.9C-211.7 -140.1 -165 -162.1 -122 -183.7C-78.9 -205.2 -39.5 -226.1 2.3 -229.6C44 -233.1 87.9 -219.2 139.1 -201.4" fill="none" stroke="#1C68CE" stroke-width="6"></path></g></svg>