<svg version="1.1" id="Capa_1" xmlns="http://www.w3.org/2000/svg" xmlns:xlink="http://www.w3.org/1999/xlink" x="0px" y="0px" viewBox="0 0 470.004 470.004" style="enable-background:new 0 0 470.004 470.004;" xml:space="preserve">
                <g>
                    <path style="fill:#D7DBDB;" d="M360.626,420.652c30.269-15.508,57.09-36.189,79.72-61.47
                        c10.243-11.444,15.417-26.191,14.568-41.527s-7.619-29.423-19.062-39.666c-11.443-10.244-26.195-15.416-41.527-14.57
                        c-15.336,0.849-29.422,7.619-39.665,19.063c-30.451,34.018-74.063,53.528-119.657,53.528s-89.206-19.51-119.656-53.528
                        c-10.244-11.443-24.332-18.214-39.667-19.062c-15.331-0.854-30.082,4.324-41.526,14.568
                        c-11.443,10.244-18.214,24.331-19.062,39.667s4.325,30.083,14.568,41.527c52.238,58.358,127.083,91.829,205.344,91.829
                        c33.92,0,67.216-6.202,98.962-18.432c3.834-1.478,8.132,0.409,9.655,4.212c4.624-1.923,9.196-3.969,13.712-6.134
                        C355.511,426.987,356.969,422.526,360.626,420.652z M235.002,401.012c-64.057,0-125.323-27.401-168.088-75.177
                        c-2.763-3.086-2.501-7.828,0.586-10.59c3.086-2.763,7.828-2.5,10.59,0.586c39.924,44.601,97.116,70.181,156.912,70.181
                        s116.988-25.58,156.912-70.181c2.76-3.086,7.502-3.35,10.59-0.586c3.087,2.763,3.349,7.504,0.586,10.59
                        C360.325,373.611,299.059,401.012,235.002,401.012z"></path>
                    <path style="fill:#26262a;" d="M403.09,325.834c2.763-3.086,2.501-7.828-0.586-10.59c-3.088-2.764-7.83-2.5-10.59,0.586
                        c-39.924,44.601-97.116,70.181-156.912,70.181S118.014,360.431,78.09,315.83c-2.762-3.086-7.504-3.349-10.59-0.586
                        c-3.087,2.763-3.349,7.504-0.586,10.59c42.765,47.776,104.031,75.177,168.088,75.177S360.325,373.611,403.09,325.834z"></path>
                    <path style="fill:#359353;" d="M235.002,251.012c42.315,0,76.741-34.426,76.741-76.742s-34.426-76.741-76.741-76.741
                        s-76.741,34.426-76.741,76.741S192.687,251.012,235.002,251.012z M226.169,187.77c4.135,0,7.5,3.365,7.5,7.5s-3.365,7.5-7.5,7.5
                        c-4.135,0-7.5-3.365-7.5-7.5S222.033,187.77,226.169,187.77z M196.169,166.77c4.135,0,7.5,3.365,7.5,7.5s-3.365,7.5-7.5,7.5
                        c-4.135,0-7.5-3.365-7.5-7.5S192.033,166.77,196.169,166.77z"></path>
                    <path style="fill:#26262a;" d="M235.002,266.012c50.586,0,91.741-41.155,91.741-91.742s-41.155-91.741-91.741-91.741
                        s-91.741,41.155-91.741,91.741S184.416,266.012,235.002,266.012z M235.002,97.529c42.315,0,76.741,34.426,76.741,76.741
                        s-34.426,76.742-76.741,76.742s-76.741-34.426-76.741-76.742S192.687,97.529,235.002,97.529z"></path>
                    <path style="fill:#26262a;" d="M196.169,181.77c4.135,0,7.5-3.365,7.5-7.5s-3.365-7.5-7.5-7.5c-4.135,0-7.5,3.365-7.5,7.5
                        S192.033,181.77,196.169,181.77z"></path>
                    <path style="fill:#26262a;" d="M226.169,202.77c4.135,0,7.5-3.365,7.5-7.5s-3.365-7.5-7.5-7.5c-4.135,0-7.5,3.365-7.5,7.5
                        S222.033,202.77,226.169,202.77z"></path>
                    <path class="clown-eye" style="fill: #26262a;" d="M345.683,63.993h37.5v37.5c0,4.142,3.357,7.5,7.5,7.5s7.5-3.358,7.5-7.5v-37.5h37.5
                        c4.143,0,7.5-3.358,7.5-7.5s-3.357-7.5-7.5-7.5h-37.5v-37.5c0-4.142-3.357-7.5-7.5-7.5s-7.5,3.358-7.5,7.5v37.5h-37.5
                        c-4.143,0-7.5,3.358-7.5,7.5S341.54,63.993,345.683,63.993z"></path>
                    <path class="clown-eye" style="fill: #26262a;" d="M37.119,63.993h37.5v37.5c0,4.142,3.357,7.5,7.5,7.5s7.5-3.358,7.5-7.5v-37.5h37.5
                        c4.143,0,7.5-3.358,7.5-7.5s-3.357-7.5-7.5-7.5h-37.5v-37.5c0-4.142-3.357-7.5-7.5-7.5s-7.5,3.358-7.5,7.5v37.5h-37.5
                        c-4.143,0-7.5,3.358-7.5,7.5S32.977,63.993,37.119,63.993z"></path>
                    <path style="fill:#26262a;" d="M469.891,316.826c-1.07-19.336-9.605-37.098-24.035-50.013c-14.43-12.917-33.042-19.44-52.36-18.371
                        c-19.336,1.07-37.098,9.607-50.013,24.037c-27.608,30.843-67.148,48.532-108.48,48.532s-80.872-17.689-108.48-48.533
                        c-12.916-14.429-30.678-22.965-50.014-24.035c-19.336-1.077-37.933,5.453-52.359,18.369C9.719,279.728,1.184,297.49,0.114,316.826
                        s5.453,37.931,18.369,52.36c55.08,61.534,133.998,96.825,216.52,96.825c35.771,0,70.881-6.539,104.354-19.435
                        c3.865-1.489,5.791-5.83,4.303-9.695c-0.012-0.031-0.028-0.059-0.04-0.09c-1.523-3.803-5.821-5.691-9.655-4.212
                        c-31.746,12.23-65.042,18.432-98.962,18.432c-78.261,0-153.105-33.471-205.344-91.829c-10.243-11.444-15.417-26.191-14.568-41.527
                        s7.619-29.423,19.062-39.667c11.444-10.244,26.195-15.422,41.526-14.568c15.335,0.849,29.423,7.619,39.667,19.062
                        c30.45,34.018,74.063,53.528,119.656,53.528s89.206-19.51,119.657-53.528c10.243-11.444,24.329-18.214,39.665-19.063
                        c15.332-0.846,30.084,4.326,41.527,14.57c11.443,10.243,18.214,24.331,19.062,39.666s-4.325,30.083-14.568,41.527
                        c-22.63,25.281-49.451,45.962-79.72,61.47c-3.657,1.874-5.116,6.335-3.295,10.005c0.015,0.03,0.025,0.06,0.04,0.089
                        c1.889,3.687,6.41,5.144,10.095,3.255c31.914-16.351,60.194-38.158,84.056-64.816C464.438,354.757,470.961,336.162,469.891,316.826
                        z"></path>
                </g>
                </svg>