<svg width="147" height="74" viewBox="0 0 147 74" fill="none" xmlns="http://www.w3.org/2000/svg">
<g filter="url(#filter0_d)">
<path d="M34.2188 9.304C36.2588 9.304 38.1068 9.736 39.7628 10.6C41.4428 11.464 42.7748 12.724 43.7588 14.38C44.7428 16.036 45.2348 17.992 45.2348 20.248V23.056C45.2348 25.312 44.7428 27.268 43.7588 28.924C42.7748 30.58 41.4428 31.84 39.7628 32.704C38.1068 33.568 36.2588 34 34.2188 34H24.8588V9.304H34.2188ZM30.4388 29.572H34.2188C35.7548 29.572 37.0028 29.08 37.9628 28.096C38.9228 27.088 39.4028 25.672 39.4028 23.848V19.456C39.4028 17.632 38.9228 16.228 37.9628 15.244C37.0028 14.236 35.7548 13.732 34.2188 13.732H30.4388V29.572ZM70.6705 26.152C70.6705 27.784 70.2865 29.224 69.5185 30.472C68.7505 31.72 67.6585 32.68 66.2425 33.352C64.8265 34.024 63.1945 34.36 61.3465 34.36H60.3385C58.4905 34.36 56.8585 34.024 55.4425 33.352C54.0505 32.68 52.9705 31.72 52.2025 30.472C51.4345 29.224 51.0505 27.784 51.0505 26.152V9.304H56.5945V26.044C56.5945 27.172 56.9905 28.108 57.7825 28.852C58.5985 29.596 59.6305 29.968 60.8785 29.968C62.1505 29.968 63.1705 29.608 63.9385 28.888C64.7305 28.144 65.1265 27.196 65.1265 26.044V9.304H70.6705V26.152ZM98.0971 33.784C97.3051 34.096 96.2731 34.252 95.0011 34.252C93.7771 34.252 92.7811 33.952 92.0131 33.352C91.2451 32.752 90.8611 31.744 90.8611 30.328C90.8611 28.264 90.5851 26.656 90.0331 25.504C89.5051 24.352 88.4971 23.776 87.0091 23.776H82.8331V34H77.3611V9.304H88.4131C90.7651 9.304 92.7331 9.784 94.3171 10.744C95.9251 11.704 96.7291 13.264 96.7291 15.424C96.7291 16.288 96.5371 17.14 96.1531 17.98C95.7691 18.82 95.2291 19.54 94.5331 20.14C93.8611 20.74 93.1171 21.112 92.3011 21.256V21.436C93.3571 21.772 94.2811 22.492 95.0731 23.596C95.8651 24.7 96.2611 26.176 96.2611 28.024C96.2611 30.664 96.8731 32.176 98.0971 32.56V33.784ZM88.2331 19.42C89.0251 19.42 89.6971 19.156 90.2491 18.628C90.8251 18.1 91.1131 17.464 91.1131 16.72V16.468C91.1131 15.676 90.8371 15.028 90.2851 14.524C89.7571 13.996 89.0731 13.732 88.2331 13.732H82.8331V19.42H88.2331ZM122.435 26.152C122.435 27.784 122.051 29.224 121.283 30.472C120.515 31.72 119.423 32.68 118.007 33.352C116.591 34.024 114.959 34.36 113.111 34.36H112.103C110.255 34.36 108.623 34.024 107.207 33.352C105.815 32.68 104.735 31.72 103.967 30.472C103.199 29.224 102.815 27.784 102.815 26.152V9.304H108.359V26.044C108.359 27.172 108.755 28.108 109.547 28.852C110.363 29.596 111.395 29.968 112.643 29.968C113.915 29.968 114.935 29.608 115.703 28.888C116.495 28.144 116.891 27.196 116.891 26.044V9.304H122.435V26.152Z" fill="url(#paint0_linear)"/>
</g>
<g filter="url(#filter1_d)">
<path d="M12.684 64.748C12.372 64.94 11.988 65.084 11.532 65.18C11.1 65.3 10.668 65.36 10.236 65.36C9.132 65.36 8.244 65.024 7.572 64.352C6.9 63.68 6.564 62.684 6.564 61.364V48.26H4.548V46.604H6.564L7.212 40.736H8.4V46.604H12.684V48.26H8.4V61.292C8.4 62.252 8.58 62.9 8.94 63.236C9.324 63.548 9.828 63.704 10.452 63.704C10.716 63.704 11.076 63.644 11.532 63.524C11.988 63.404 12.372 63.272 12.684 63.128V64.748ZM33.9493 58.196C33.9493 59.684 33.6253 60.968 32.9773 62.048C32.3533 63.128 31.5013 63.956 30.4213 64.532C29.3413 65.084 28.1293 65.36 26.7853 65.36C25.2733 65.36 23.9293 65 22.7533 64.28C21.6013 63.536 20.7013 62.468 20.0533 61.076C19.4053 59.684 19.0813 58.016 19.0813 56.072V55.532C19.0813 53.588 19.3933 51.92 20.0173 50.528C20.6653 49.136 21.5653 48.08 22.7173 47.36C23.8933 46.616 25.2373 46.244 26.7493 46.244C28.1173 46.244 29.3413 46.544 30.4213 47.144C31.5253 47.72 32.3893 48.572 33.0133 49.7C33.6373 50.804 33.9493 52.136 33.9493 53.696V56H20.9173V56.288C20.9173 58.688 21.4573 60.524 22.5373 61.796C23.6413 63.068 25.0573 63.704 26.7853 63.704C28.3213 63.704 29.5933 63.236 30.6013 62.3C31.6333 61.364 32.1493 59.996 32.1493 58.196H33.9493ZM26.7493 47.9C25.1413 47.9 23.8093 48.452 22.7533 49.556C21.6973 50.66 21.0973 52.256 20.9533 54.344H32.1493V53.696C32.1493 51.824 31.6333 50.396 30.6013 49.412C29.5933 48.404 28.3093 47.9 26.7493 47.9ZM60.1452 46.244C61.9692 46.244 63.4572 46.832 64.6092 48.008C65.7612 49.16 66.3372 50.876 66.3372 53.156V65H64.5012V53.696C64.5012 49.832 63.0012 47.9 60.0012 47.9C58.5612 47.9 57.3852 48.452 56.4732 49.556C55.5612 50.66 55.1052 52.04 55.1052 53.696V65H53.2692V53.696C53.2692 49.832 51.7692 47.9 48.7692 47.9C47.3292 47.9 46.1532 48.452 45.2412 49.556C44.3292 50.66 43.8732 52.04 43.8732 53.696V65H42.0372V46.604H43.2612L43.6932 49.34C44.2212 48.38 44.9532 47.624 45.8892 47.072C46.8252 46.52 47.8332 46.244 48.9132 46.244C50.1372 46.244 51.2292 46.508 52.1892 47.036C53.1732 47.564 53.9292 48.344 54.4572 49.376C54.9852 48.488 55.7412 47.744 56.7252 47.144C57.7332 46.544 58.8732 46.244 60.1452 46.244ZM74.984 39.08H77.108V41.024H74.984V39.08ZM75.128 65V46.604H76.964V65H75.128ZM84.5155 65V64.136L94.4875 48.26H85.1275V46.604H97.1875V47.468L87.1795 63.344H97.4755V65H84.5155ZM104.816 65V39.08H106.652V65H104.816ZM116.032 39.08H118.156V41.024H116.032V39.08ZM116.176 65V46.604H118.012V65H116.176ZM132.836 56.648L129.092 60.428V65H127.256V39.08H129.092V58.304L139.532 46.604H141.8L134.06 55.28L142.412 65H140.036L132.836 56.648Z" fill="url(#paint1_linear)"/>
</g>
<defs>
<filter id="filter0_d" x="20.8588" y="7.30402" width="105.576" height="33.056" filterUnits="userSpaceOnUse" color-interpolation-filters="sRGB">
<feFlood flood-opacity="0" result="BackgroundImageFix"/>
<feColorMatrix in="SourceAlpha" type="matrix" values="0 0 0 0 0 0 0 0 0 0 0 0 0 0 0 0 0 0 127 0" result="hardAlpha"/>
<feOffset dy="2"/>
<feGaussianBlur stdDeviation="2"/>
<feColorMatrix type="matrix" values="0 0 0 0 0 0 0 0 0 0 0 0 0 0 0 0 0 0 0.25 0"/>
<feBlend mode="normal" in2="BackgroundImageFix" result="effect1_dropShadow"/>
<feBlend mode="normal" in="SourceGraphic" in2="effect1_dropShadow" result="shape"/>
</filter>
<filter id="filter1_d" x="0.548004" y="37.08" width="145.864" height="34.28" filterUnits="userSpaceOnUse" color-interpolation-filters="sRGB">
<feFlood flood-opacity="0" result="BackgroundImageFix"/>
<feColorMatrix in="SourceAlpha" type="matrix" values="0 0 0 0 0 0 0 0 0 0 0 0 0 0 0 0 0 0 127 0" result="hardAlpha"/>
<feOffset dy="2"/>
<feGaussianBlur stdDeviation="2"/>
<feColorMatrix type="matrix" values="0 0 0 0 0 0 0 0 0 0 0 0 0 0 0 0 0 0 0.25 0"/>
<feBlend mode="normal" in2="BackgroundImageFix" result="effect1_dropShadow"/>
<feBlend mode="normal" in="SourceGraphic" in2="effect1_dropShadow" result="shape"/>
</filter>
<linearGradient id="paint0_linear" x1="73.5" y1="0" x2="73.5" y2="43" gradientUnits="userSpaceOnUse">
<stop stop-color="#26262A"/>
<stop offset="0.834375" stop-color="#1C68CE"/>
</linearGradient>
<linearGradient id="paint1_linear" x1="73.5" y1="31" x2="73.5" y2="74" gradientUnits="userSpaceOnUse">
<stop stop-color="#26262A"/>
<stop offset="0.834375" stop-color="#1C68CE"/>
</linearGradient>
</defs>
</svg>
