<svg width="274" height="186" viewBox="0 0 274 186" fill="none" xmlns="http://www.w3.org/2000/svg">
<g filter="url(#filter0_d)">
<path d="M34.2188 94.304C36.2588 94.304 38.1068 94.736 39.7628 95.6C41.4428 96.464 42.7748 97.724 43.7588 99.38C44.7428 101.036 45.2348 102.992 45.2348 105.248V108.056C45.2348 110.312 44.7428 112.268 43.7588 113.924C42.7748 115.58 41.4428 116.84 39.7628 117.704C38.1068 118.568 36.2588 119 34.2188 119H24.8588V94.304H34.2188ZM30.4388 114.572H34.2188C35.7548 114.572 37.0028 114.08 37.9628 113.096C38.9228 112.088 39.4028 110.672 39.4028 108.848V104.456C39.4028 102.632 38.9228 101.228 37.9628 100.244C37.0028 99.236 35.7548 98.732 34.2188 98.732H30.4388V114.572ZM70.6705 111.152C70.6705 112.784 70.2865 114.224 69.5185 115.472C68.7505 116.72 67.6585 117.68 66.2425 118.352C64.8265 119.024 63.1945 119.36 61.3465 119.36H60.3385C58.4905 119.36 56.8585 119.024 55.4425 118.352C54.0505 117.68 52.9705 116.72 52.2025 115.472C51.4345 114.224 51.0505 112.784 51.0505 111.152V94.304H56.5945V111.044C56.5945 112.172 56.9905 113.108 57.7825 113.852C58.5985 114.596 59.6305 114.968 60.8785 114.968C62.1505 114.968 63.1705 114.608 63.9385 113.888C64.7305 113.144 65.1265 112.196 65.1265 111.044V94.304H70.6705V111.152ZM98.0971 118.784C97.3051 119.096 96.2731 119.252 95.0011 119.252C93.7771 119.252 92.7811 118.952 92.0131 118.352C91.2451 117.752 90.8611 116.744 90.8611 115.328C90.8611 113.264 90.5851 111.656 90.0331 110.504C89.5051 109.352 88.4971 108.776 87.0091 108.776H82.8331V119H77.3611V94.304H88.4131C90.7651 94.304 92.7331 94.784 94.3171 95.744C95.9251 96.704 96.7291 98.264 96.7291 100.424C96.7291 101.288 96.5371 102.14 96.1531 102.98C95.7691 103.82 95.2291 104.54 94.5331 105.14C93.8611 105.74 93.1171 106.112 92.3011 106.256V106.436C93.3571 106.772 94.2811 107.492 95.0731 108.596C95.8651 109.7 96.2611 111.176 96.2611 113.024C96.2611 115.664 96.8731 117.176 98.0971 117.56V118.784ZM88.2331 104.42C89.0251 104.42 89.6971 104.156 90.2491 103.628C90.8251 103.1 91.1131 102.464 91.1131 101.72V101.468C91.1131 100.676 90.8371 100.028 90.2851 99.524C89.7571 98.996 89.0731 98.732 88.2331 98.732H82.8331V104.42H88.2331ZM122.435 111.152C122.435 112.784 122.051 114.224 121.283 115.472C120.515 116.72 119.423 117.68 118.007 118.352C116.591 119.024 114.959 119.36 113.111 119.36H112.103C110.255 119.36 108.623 119.024 107.207 118.352C105.815 117.68 104.735 116.72 103.967 115.472C103.199 114.224 102.815 112.784 102.815 111.152V94.304H108.359V111.044C108.359 112.172 108.755 113.108 109.547 113.852C110.363 114.596 111.395 114.968 112.643 114.968C113.915 114.968 114.935 114.608 115.703 113.888C116.495 113.144 116.891 112.196 116.891 111.044V94.304H122.435V111.152Z" fill="url(#paint0_linear)"/>
</g>
<g filter="url(#filter1_d)">
<path d="M12.684 149.748C12.372 149.94 11.988 150.084 11.532 150.18C11.1 150.3 10.668 150.36 10.236 150.36C9.132 150.36 8.244 150.024 7.572 149.352C6.9 148.68 6.564 147.684 6.564 146.364V133.26H4.548V131.604H6.564L7.212 125.736H8.4V131.604H12.684V133.26H8.4V146.292C8.4 147.252 8.58 147.9 8.94 148.236C9.324 148.548 9.828 148.704 10.452 148.704C10.716 148.704 11.076 148.644 11.532 148.524C11.988 148.404 12.372 148.272 12.684 148.128V149.748ZM33.9493 143.196C33.9493 144.684 33.6253 145.968 32.9773 147.048C32.3533 148.128 31.5013 148.956 30.4213 149.532C29.3413 150.084 28.1293 150.36 26.7853 150.36C25.2733 150.36 23.9293 150 22.7533 149.28C21.6013 148.536 20.7013 147.468 20.0533 146.076C19.4053 144.684 19.0813 143.016 19.0813 141.072V140.532C19.0813 138.588 19.3933 136.92 20.0173 135.528C20.6653 134.136 21.5653 133.08 22.7173 132.36C23.8933 131.616 25.2373 131.244 26.7493 131.244C28.1173 131.244 29.3413 131.544 30.4213 132.144C31.5253 132.72 32.3893 133.572 33.0133 134.7C33.6373 135.804 33.9493 137.136 33.9493 138.696V141H20.9173V141.288C20.9173 143.688 21.4573 145.524 22.5373 146.796C23.6413 148.068 25.0573 148.704 26.7853 148.704C28.3213 148.704 29.5933 148.236 30.6013 147.3C31.6333 146.364 32.1493 144.996 32.1493 143.196H33.9493ZM26.7493 132.9C25.1413 132.9 23.8093 133.452 22.7533 134.556C21.6973 135.66 21.0973 137.256 20.9533 139.344H32.1493V138.696C32.1493 136.824 31.6333 135.396 30.6013 134.412C29.5933 133.404 28.3093 132.9 26.7493 132.9ZM60.1452 131.244C61.9692 131.244 63.4572 131.832 64.6092 133.008C65.7612 134.16 66.3372 135.876 66.3372 138.156V150H64.5012V138.696C64.5012 134.832 63.0012 132.9 60.0012 132.9C58.5612 132.9 57.3852 133.452 56.4732 134.556C55.5612 135.66 55.1052 137.04 55.1052 138.696V150H53.2692V138.696C53.2692 134.832 51.7692 132.9 48.7692 132.9C47.3292 132.9 46.1532 133.452 45.2412 134.556C44.3292 135.66 43.8732 137.04 43.8732 138.696V150H42.0372V131.604H43.2612L43.6932 134.34C44.2212 133.38 44.9532 132.624 45.8892 132.072C46.8252 131.52 47.8332 131.244 48.9132 131.244C50.1372 131.244 51.2292 131.508 52.1892 132.036C53.1732 132.564 53.9292 133.344 54.4572 134.376C54.9852 133.488 55.7412 132.744 56.7252 132.144C57.7332 131.544 58.8732 131.244 60.1452 131.244ZM74.984 124.08H77.108V126.024H74.984V124.08ZM75.128 150V131.604H76.964V150H75.128ZM84.5155 150V149.136L94.4875 133.26H85.1275V131.604H97.1875V132.468L87.1795 148.344H97.4755V150H84.5155ZM104.816 150V124.08H106.652V150H104.816ZM116.032 124.08H118.156V126.024H116.032V124.08ZM116.176 150V131.604H118.012V150H116.176ZM132.836 141.648L129.092 145.428V150H127.256V124.08H129.092V143.304L139.532 131.604H141.8L134.06 140.28L142.412 150H140.036L132.836 141.648Z" fill="url(#paint1_linear)"/>
</g>
<g filter="url(#filter2_i)">
<path d="M161.367 154.738C161.364 141.371 163.65 128.134 168.092 115.784C172.534 103.433 179.046 92.2112 187.255 82.7584C195.465 73.3054 205.212 65.8069 215.94 60.691C226.667 55.575 238.165 52.9418 249.777 52.9418C251.269 52.9418 252.761 52.9764 254.238 53.0861C254.74 53.1034 255.241 53.14 255.743 53.1765C259.919 58.4143 263.461 64.2775 266.274 70.6069L266.29 70.6242C266.29 70.6416 266.29 70.6416 266.305 70.6781V70.6974C266.312 70.7293 266.322 70.7599 266.337 70.7878H266.352C266.382 70.8226 266.404 70.8658 266.416 70.9129C267.57 73.5461 268.598 76.2507 269.493 79.0142V79.0508C274.092 93.2865 275.04 108.744 272.225 123.582C269.409 138.421 262.949 152.015 253.613 162.747C249.449 167.57 244.755 171.745 239.65 175.168C239.59 175.221 239.527 175.269 239.461 175.312V175.332H239.446C239.438 175.342 239.427 175.348 239.415 175.349L239.398 175.368C233.725 179.157 227.604 181.977 221.226 183.739L221.211 183.756C217.744 184.737 214.215 185.396 210.657 185.727H210.578L209.575 185.819C208.021 185.944 206.466 186 204.911 186C189.425 185.975 174.393 179.971 162.221 168.949C161.65 164.24 161.365 159.492 161.367 154.738Z" fill="url(#paint2_linear)"/>
<path d="M136 106.659C135.988 96.2429 137.765 85.9271 141.228 76.3046C144.692 66.6821 149.774 57.943 156.183 50.5903L196.752 3.88728C198.761 1.56713 201.446 0.188171 204.288 0.017868C207.129 -0.152435 209.924 0.898056 212.131 2.96554H212.146L212.163 2.98284C212.474 3.25995 212.768 3.56207 213.042 3.88728L242.696 38.0245C219.306 38.795 196.711 47.9626 178.07 64.2446C159.43 80.5267 145.676 103.109 138.733 128.833C138.732 128.818 138.726 128.806 138.717 128.796C136.916 121.6 136.002 114.148 136 106.659Z" fill="url(#paint3_linear)"/>
<g style="mix-blend-mode:screen" opacity="0.4">
<g style="mix-blend-mode:screen" opacity="0.4">
<path d="M221.222 183.739C221.317 183.685 221.709 183.45 222.392 183.015C223.161 182.527 224.291 181.895 225.674 180.972C226.366 180.52 227.134 180.033 227.967 179.49C228.768 178.874 229.639 178.297 230.575 177.627C232.413 176.29 234.419 174.741 236.542 172.944C237.595 172.058 238.647 171.063 239.763 170.088C240.815 169.022 241.961 168.008 243.045 166.851C245.336 164.496 247.517 162.003 249.579 159.383C251.76 156.609 253.795 153.687 255.673 150.633C256.676 149.132 257.496 147.45 258.438 145.878C259.239 144.268 260.055 142.857 260.904 140.875C262.495 137.512 263.87 134.019 265.018 130.424C265.614 128.669 266.086 126.862 266.621 125.09C267.06 123.281 267.532 121.511 267.878 119.738C268.631 116.304 269.203 112.819 269.589 109.305C269.683 108.474 269.777 107.64 269.872 106.803C269.935 105.972 269.998 105.159 270.061 104.363C270.228 102.754 270.218 101.2 270.312 99.6794C270.405 98.1592 270.358 96.7331 270.405 95.3418C270.375 93.9313 270.358 92.6114 270.343 91.3626C270.218 88.861 270.176 86.6442 269.997 84.8545C269.872 83.0282 269.715 81.5445 269.621 80.5499C269.558 79.7011 269.511 79.2029 269.494 79.0508C274.093 93.2865 275.041 108.744 272.226 123.582C269.41 138.42 262.95 152.015 253.614 162.747C249.45 167.57 244.756 171.745 239.651 175.168C239.591 175.221 239.528 175.269 239.462 175.312V175.332H239.447C239.439 175.341 239.428 175.348 239.416 175.349L239.399 175.368C233.724 179.157 227.601 181.977 221.222 183.739Z" fill="white"/>
</g>
</g>
<g style="mix-blend-mode:multiply" opacity="0.3">
<g style="mix-blend-mode:multiply" opacity="0.3">
<path d="M161.365 154.738C161.363 141.371 163.648 128.134 168.091 115.784C172.533 103.433 179.044 92.2112 187.254 82.7584C195.464 73.3054 205.211 65.8069 215.939 60.691C226.666 55.575 238.164 52.9418 249.776 52.9418C251.268 52.9418 252.759 52.9764 254.237 53.0861L249.493 53.7731C247.892 54.1349 246.289 54.4235 244.702 54.7487C243.116 55.1105 241.526 55.2914 239.975 55.7802L235.358 57.1714C232.306 58.0839 229.301 59.1948 226.358 60.4986C225.62 60.8238 224.866 61.0412 224.144 61.4203L222.007 62.5422C220.593 63.283 219.166 64.0239 217.751 64.7301C216.337 65.4363 215.018 66.4485 213.651 67.2798C212.3 68.1477 210.935 68.9597 209.599 69.8468L205.766 72.8488C204.461 73.7761 203.208 74.7965 202.013 75.9046C200.82 77.0245 199.641 78.1464 198.431 79.2317C197.834 79.7917 197.223 80.3151 196.641 80.8943L194.993 82.7378C193.908 83.9674 192.793 85.1797 191.678 86.3728C190.563 87.5659 189.637 88.9764 188.601 90.2599L185.592 94.2201L182.889 98.469C181.073 101.286 179.399 104.219 177.874 107.255C177.496 107.998 177.057 108.72 176.704 109.499L175.714 111.868L173.657 116.569C172.934 118.124 172.512 119.823 171.93 121.432L170.233 126.35L168.961 131.413L168.301 133.963C168.057 134.787 167.873 135.634 167.751 136.493L166.872 141.556L166.4 144.087C166.233 144.937 166.213 145.932 166.103 146.835L165.601 152.415L165.35 154.965L165.225 157.64C165.115 160.859 165.13 164.076 165.257 167.313C166.544 168.633 167.88 169.936 169.245 171.162C171.021 172.751 172.858 174.289 174.775 175.699C176.675 177.146 178.638 178.503 180.681 179.75C181.717 180.346 182.737 180.98 183.79 181.557L186.869 183.202C177.892 180.441 169.504 175.585 162.225 168.937C161.653 164.233 161.365 159.488 161.365 154.738Z" fill="black"/>
</g>
</g>
<g style="mix-blend-mode:screen" opacity="0.4">
<g style="mix-blend-mode:screen" opacity="0.4">
<path d="M159.118 85.2509C160.045 83.1534 161.034 81.0752 162.102 79.0315C163.217 77.0611 164.381 75.0906 165.589 73.1547C166.861 71.3112 168.15 69.4312 169.516 67.6416C170.93 65.8866 172.344 64.1335 173.82 62.4459C175.36 60.8545 176.851 59.1746 178.454 57.6544C180.087 56.1534 181.705 54.6159 183.4 53.2285C185.128 51.8718 186.84 50.4806 188.63 49.2317C190.437 48.0213 192.213 46.7301 194.081 45.6525C195.95 44.5749 197.819 43.4472 199.751 42.5062C201.699 41.6211 203.614 40.5819 205.594 39.8122C207.599 39.0713 209.567 38.24 211.593 37.5877C213.621 37.0104 215.646 36.3408 217.688 35.8558C219.76 35.4402 221.818 34.9514 223.872 34.6089C225.962 34.3568 228.035 34.0662 230.107 33.868C231.868 33.8122 233.618 33.7237 235.37 33.6871C234.805 32.8 234.223 31.9149 233.658 31.0277C232.59 29.3478 231.568 27.6294 230.547 25.8937C229.511 24.1945 228.521 22.4299 227.563 20.6134L242.689 38.0264C226.631 38.5277 210.854 43.0052 196.433 51.1543C182.013 59.3032 169.286 70.9325 159.118 85.2509Z" fill="white"/>
</g>
</g>
<g style="mix-blend-mode:multiply" opacity="0.3">
<g style="mix-blend-mode:multiply" opacity="0.3">
<path d="M136 106.659C135.988 96.243 137.764 85.927 141.228 76.3047C144.692 66.6822 149.774 57.9431 156.183 50.5904L196.752 3.88737C198.761 1.56724 201.446 0.188278 204.287 0.0179749C207.129 -0.152328 209.924 0.898178 212.131 2.96565C212.084 2.94641 211.974 2.8752 211.77 2.77322C211.404 2.55634 211.026 2.3693 210.638 2.21324C209.239 1.60824 207.751 1.32018 206.257 1.36463C204.13 1.46085 202.079 2.30656 200.383 3.78731C200.162 4.00283 199.942 4.22031 199.714 4.43775C199.547 4.6552 199.352 4.87071 199.179 5.08817L198.803 5.57693L198.521 5.96179L198.472 6.01568L198.504 5.99835L198.457 6.05223C198.237 6.37744 198.018 6.72189 197.789 7.06442C196.786 8.47494 195.731 9.9759 194.648 11.5307C190.218 17.7328 184.924 24.82 179.082 32.1978C176.16 35.8867 173.114 39.6641 169.957 43.4435C166.831 47.2401 163.565 51.0195 160.328 54.7969C157.301 58.237 154.542 61.9761 152.082 65.9714C149.707 69.8504 147.616 73.9505 145.832 78.2292C144.159 82.2831 142.757 86.4781 141.638 90.7776C140.629 94.6682 139.842 98.6303 139.281 102.639C139.141 103.601 139.062 104.592 138.947 105.526C138.9 105.976 138.837 106.428 138.79 106.863C138.743 107.298 138.711 107.748 138.665 108.183C138.507 109.936 138.429 111.618 138.365 113.209C138.257 116.373 138.24 119.175 138.319 121.484C138.429 123.781 138.486 125.642 138.601 126.891C138.716 128.14 138.743 128.815 138.743 128.815C138.742 128.801 138.736 128.788 138.726 128.779C136.924 121.588 136.006 114.143 136 106.659Z" fill="black"/>
</g>
</g>
<g style="mix-blend-mode:screen" opacity="0.16">
<g style="mix-blend-mode:screen" opacity="0.16">
<path d="M171.313 161.69C244.411 154.387 250.854 68.1688 251.106 64.2991V64.1663C251.243 64.3587 251.379 64.5511 251.496 64.7436C251.663 64.9687 251.768 65.1477 251.847 65.2593C251.865 65.2824 251.905 65.3266 251.905 65.3709C260.895 78.9148 265.143 95.8483 263.809 112.824C262.476 129.799 255.658 145.581 244.704 157.049C243.342 158.482 241.921 159.849 240.441 161.126C239.313 162.112 230.126 168.341 228.907 168.968C226.865 170.007 224.772 170.913 222.641 171.679C208.427 176.732 193.09 175.518 179.611 168.273C177.483 167.126 171.509 164.536 171.313 161.69Z" fill="white"/>
</g>
</g>
</g>
<defs>
<filter id="filter0_d" x="20.8588" y="92.304" width="105.576" height="33.056" filterUnits="userSpaceOnUse" color-interpolation-filters="sRGB">
<feFlood flood-opacity="0" result="BackgroundImageFix"/>
<feColorMatrix in="SourceAlpha" type="matrix" values="0 0 0 0 0 0 0 0 0 0 0 0 0 0 0 0 0 0 127 0"/>
<feOffset dy="2"/>
<feGaussianBlur stdDeviation="2"/>
<feColorMatrix type="matrix" values="0 0 0 0 0 0 0 0 0 0 0 0 0 0 0 0 0 0 0.25 0"/>
<feBlend mode="normal" in2="BackgroundImageFix" result="effect1_dropShadow"/>
<feBlend mode="normal" in="SourceGraphic" in2="effect1_dropShadow" result="shape"/>
</filter>
<filter id="filter1_d" x="0.548004" y="122.08" width="145.864" height="34.28" filterUnits="userSpaceOnUse" color-interpolation-filters="sRGB">
<feFlood flood-opacity="0" result="BackgroundImageFix"/>
<feColorMatrix in="SourceAlpha" type="matrix" values="0 0 0 0 0 0 0 0 0 0 0 0 0 0 0 0 0 0 127 0"/>
<feOffset dy="2"/>
<feGaussianBlur stdDeviation="2"/>
<feColorMatrix type="matrix" values="0 0 0 0 0 0 0 0 0 0 0 0 0 0 0 0 0 0 0.25 0"/>
<feBlend mode="normal" in2="BackgroundImageFix" result="effect1_dropShadow"/>
<feBlend mode="normal" in="SourceGraphic" in2="effect1_dropShadow" result="shape"/>
</filter>
<filter id="filter2_i" x="136" y="0" width="137.811" height="190" filterUnits="userSpaceOnUse" color-interpolation-filters="sRGB">
<feFlood flood-opacity="0" result="BackgroundImageFix"/>
<feBlend mode="normal" in="SourceGraphic" in2="BackgroundImageFix" result="shape"/>
<feColorMatrix in="SourceAlpha" type="matrix" values="0 0 0 0 0 0 0 0 0 0 0 0 0 0 0 0 0 0 127 0" result="hardAlpha"/>
<feOffset dy="4"/>
<feGaussianBlur stdDeviation="2"/>
<feComposite in2="hardAlpha" operator="arithmetic" k2="-1" k3="1"/>
<feColorMatrix type="matrix" values="0 0 0 0 0 0 0 0 0 0 0 0 0 0 0 0 0 0 0.25 0"/>
<feBlend mode="normal" in2="shape" result="effect1_innerShadow"/>
</filter>
<linearGradient id="paint0_linear" x1="73.5" y1="85" x2="73.5" y2="128" gradientUnits="userSpaceOnUse">
<stop stop-color="#26262A"/>
<stop offset="0.834375" stop-color="#1C68CE"/>
</linearGradient>
<linearGradient id="paint1_linear" x1="73.5" y1="116" x2="73.5" y2="159" gradientUnits="userSpaceOnUse">
<stop stop-color="#26262A"/>
<stop offset="0.834375" stop-color="#1C68CE"/>
</linearGradient>
<linearGradient id="paint2_linear" x1="252.221" y1="153.8" x2="176.913" y2="100.604" gradientUnits="userSpaceOnUse">
<stop stop-color="#7CE4ED"/>
<stop offset="1" stop-color="white"/>
</linearGradient>
<linearGradient id="paint3_linear" x1="228.826" y1="22.6745" x2="142.208" y2="64.9843" gradientUnits="userSpaceOnUse">
<stop offset="0.527083" stop-color="#1C68CE"/>
<stop offset="0.725" stop-color="#1A4F96"/>
<stop offset="1" stop-color="#26262A"/>
</linearGradient>
</defs>
</svg>
